<svg width="611" height="383" viewBox="0 0 611 383" fill="none" xmlns="http://www.w3.org/2000/svg">
<path d="M94.464 126H120.456C132.48 126 139.536 120.744 139.536 112.104V111.96C139.536 105.12 135.648 101.664 129.528 99.648C133.992 97.704 137.304 94.248 137.304 88.416V88.272C137.304 84.816 136.08 82.152 134.064 80.136C131.112 77.184 126.648 75.6 120.312 75.6H94.464V126ZM108.072 95.688V86.832H117.144C121.32 86.832 123.48 88.416 123.48 91.152V91.296C123.48 94.248 121.104 95.688 116.856 95.688H108.072ZM108.072 114.768V105.48H118.728C123.408 105.48 125.568 107.28 125.568 110.016V110.16C125.568 113.112 123.12 114.768 118.872 114.768H108.072ZM145.933 126H184.309V113.76H159.901V75.6H145.933V126ZM186.268 126H200.956L204.556 117H223.996L227.668 126H242.644L221.188 75.24H207.724L186.268 126ZM208.66 106.128L214.348 91.8L219.964 106.128H208.66ZM268.564 127.008C279.724 127.008 286.132 122.184 290.884 115.632L280.372 108.144C277.348 111.816 274.252 114.264 268.996 114.264C261.94 114.264 256.972 108.36 256.972 100.8V100.656C256.972 93.312 261.94 87.336 268.996 87.336C273.82 87.336 277.132 89.64 280.012 93.24L290.524 85.104C286.06 78.912 279.436 74.592 269.14 74.592C253.876 74.592 242.572 86.112 242.572 100.8V100.944C242.572 115.992 254.164 127.008 268.564 127.008ZM296.894 126H310.862V112.968L315.974 107.28L328.646 126H345.422L325.694 97.272L344.774 75.6H328.214L310.862 96.048V75.6H296.894V126ZM94.464 180H108.432V162H132.264V150.408H108.432V141.84H134.784V129.6H94.464V180ZM141.152 180H155.12V164.736H161.096H161.24L171.392 180H187.52L175.496 162.432C181.76 159.768 185.864 154.656 185.864 146.952V146.808C185.864 141.84 184.352 137.952 181.4 135.072C178.016 131.616 172.688 129.6 164.984 129.6H141.152V180ZM155.12 153.792V141.696H164.264C168.944 141.696 171.824 143.712 171.824 147.672V147.816C171.824 151.488 169.088 153.792 164.336 153.792H155.12ZM193.189 180H207.23V129.6H193.189V180ZM216.456 180H235.608C253.752 180 264.336 169.2 264.336 154.656V154.512C264.336 139.968 253.896 129.6 235.896 129.6H216.456V180ZM230.424 167.616V141.984H236.112C244.464 141.984 250.008 146.664 250.008 154.728V154.872C250.008 163.008 244.464 167.616 236.112 167.616H230.424ZM263.893 180H278.581L282.181 171H301.621L305.293 180H320.269L298.813 129.24H285.349L263.893 180ZM286.285 160.128L291.973 145.8L297.589 160.128H286.285ZM331.758 180H345.798V160.92L364.95 129.6H349.326L338.886 147.96L328.518 129.6H312.606L331.758 161.136V180Z" fill="#2C2C2C"/>
<path d="M97.1953 211.246C95.2266 211.246 93.6914 210.66 92.5898 209.488C91.4961 208.316 90.9492 206.641 90.9492 204.461C90.9492 202.352 91.5234 200.715 92.6719 199.551C93.8281 198.387 95.3477 197.805 97.2305 197.805C98.7383 197.805 100.012 198.129 101.051 198.777L100.324 200.969C99.2617 200.414 98.2734 200.137 97.3594 200.137C96.3203 200.137 95.5 200.508 94.8984 201.25C94.3047 201.992 94.0078 203.074 94.0078 204.496C94.0078 205.934 94.3008 207.027 94.8867 207.777C95.4805 208.527 96.3164 208.902 97.3945 208.902C98.5195 208.902 99.6016 208.57 100.641 207.906L100.934 210.238C100.395 210.598 99.8359 210.855 99.2578 211.012C98.6797 211.168 97.9922 211.246 97.1953 211.246ZM103.371 211V193.375L106.441 193.176V196.891C106.441 197.07 106.43 197.57 106.406 198.391C106.383 199.203 106.371 199.617 106.371 199.633C107.395 198.414 108.77 197.805 110.496 197.805C111.934 197.805 113.047 198.219 113.836 199.047C114.633 199.867 115.031 201.133 115.031 202.844V211H111.961V203.184C111.961 202.129 111.793 201.355 111.457 200.863C111.121 200.371 110.551 200.125 109.746 200.125C109.059 200.125 108.449 200.301 107.918 200.652C107.387 200.996 106.988 201.441 106.723 201.988C106.535 202.707 106.441 203.645 106.441 204.801V211H103.371ZM124.02 211.246C121.949 211.246 120.336 210.652 119.18 209.465C118.031 208.27 117.457 206.621 117.457 204.52C117.457 202.473 118 200.844 119.086 199.633C120.172 198.422 121.652 197.812 123.527 197.805C125.301 197.805 126.676 198.359 127.652 199.469C128.637 200.578 129.129 202.051 129.129 203.887C129.129 204.02 129.125 204.234 129.117 204.531C129.117 204.828 129.117 205.047 129.117 205.188H120.551C120.582 206.391 120.91 207.324 121.535 207.988C122.168 208.645 123.035 208.973 124.137 208.973C125.543 208.973 126.895 208.605 128.191 207.871L128.625 210.051C127.336 210.848 125.801 211.246 124.02 211.246ZM120.609 203.254H126.234C126.234 202.207 125.996 201.402 125.52 200.84C125.043 200.277 124.383 199.996 123.539 199.996C122.75 199.996 122.082 200.27 121.535 200.816C120.996 201.363 120.688 202.176 120.609 203.254ZM134.215 216.766L134.039 214.281H135.598C137.402 214.281 138.664 214.039 139.383 213.555C140.102 213.078 140.461 212.199 140.461 210.918C140.461 210.395 140.438 209.828 140.391 209.219C140.188 209.5 139.992 209.734 139.805 209.922C139.625 210.102 139.395 210.281 139.113 210.461C138.84 210.641 138.508 210.777 138.117 210.871C137.734 210.957 137.297 211 136.805 211C135.102 211 133.699 210.387 132.598 209.16C131.504 207.934 130.957 206.352 130.957 204.414C130.957 203.383 131.109 202.445 131.414 201.602C131.719 200.75 132.133 200.051 132.656 199.504C133.18 198.957 133.781 198.539 134.461 198.25C135.148 197.953 135.879 197.805 136.652 197.805C138.379 197.805 139.664 198.434 140.508 199.691L140.719 198.121H143.461V210.086C143.461 210.727 143.43 211.301 143.367 211.809C143.305 212.324 143.195 212.816 143.039 213.285C142.883 213.762 142.676 214.176 142.418 214.527C142.168 214.879 141.852 215.199 141.469 215.488C141.086 215.777 140.633 216.012 140.109 216.191C139.594 216.379 138.992 216.52 138.305 216.613C137.617 216.715 136.844 216.766 135.984 216.766H134.215ZM137.297 208.855C139.414 208.855 140.484 207.438 140.508 204.602V204.156C140.492 202.883 140.227 201.898 139.711 201.203C139.195 200.508 138.441 200.156 137.449 200.148C136.324 200.148 135.473 200.535 134.895 201.309C134.316 202.074 134.027 203.109 134.027 204.414C134.027 205.672 134.316 206.727 134.895 207.578C135.48 208.43 136.281 208.855 137.297 208.855ZM152.109 208.914C153.148 208.914 153.93 208.535 154.453 207.777C154.977 207.02 155.238 205.934 155.238 204.52C155.238 203.09 154.977 202 154.453 201.25C153.93 200.5 153.141 200.125 152.086 200.125C151.047 200.125 150.262 200.504 149.73 201.262C149.207 202.012 148.945 203.102 148.945 204.531C148.945 205.938 149.211 207.02 149.742 207.777C150.273 208.535 151.062 208.914 152.109 208.914ZM152.027 211.246C150.121 211.246 148.621 210.629 147.527 209.395C146.434 208.16 145.887 206.535 145.887 204.52C145.887 202.441 146.434 200.805 147.527 199.609C148.621 198.406 150.164 197.805 152.156 197.805C154.078 197.805 155.582 198.418 156.668 199.645C157.762 200.863 158.309 202.488 158.309 204.52C158.309 206.574 157.758 208.211 156.656 209.43C155.555 210.641 154.012 211.246 152.027 211.246ZM170.109 209.992C169.086 210.828 167.738 211.246 166.066 211.246C164.395 211.246 163.047 210.828 162.023 209.992C161.008 209.156 160.5 207.93 160.5 206.312V198.121H163.582V206.195C163.582 207.156 163.781 207.852 164.18 208.281C164.586 208.711 165.227 208.926 166.102 208.926C166.961 208.926 167.586 208.715 167.977 208.293C168.375 207.863 168.574 207.164 168.574 206.195V198.121H171.645V206.312C171.645 207.922 171.133 209.148 170.109 209.992ZM180.809 211V198.121H183.281L183.621 199.75C184.934 198.453 186.391 197.805 187.992 197.805C189.492 197.805 190.613 198.238 191.355 199.105C192.105 199.965 192.48 201.215 192.48 202.855V211H189.398V203.23C189.391 202.191 189.223 201.414 188.895 200.898C188.566 200.383 187.977 200.125 187.125 200.125C186.461 200.125 185.852 200.297 185.297 200.641C184.75 200.977 184.352 201.402 184.102 201.918C183.953 202.527 183.879 203.465 183.879 204.73V211H180.809ZM201.117 208.914C202.156 208.914 202.938 208.535 203.461 207.777C203.984 207.02 204.246 205.934 204.246 204.52C204.246 203.09 203.984 202 203.461 201.25C202.938 200.5 202.148 200.125 201.094 200.125C200.055 200.125 199.27 200.504 198.738 201.262C198.215 202.012 197.953 203.102 197.953 204.531C197.953 205.938 198.219 207.02 198.75 207.777C199.281 208.535 200.07 208.914 201.117 208.914ZM201.035 211.246C199.129 211.246 197.629 210.629 196.535 209.395C195.441 208.16 194.895 206.535 194.895 204.52C194.895 202.441 195.441 200.805 196.535 199.609C197.629 198.406 199.172 197.805 201.164 197.805C203.086 197.805 204.59 198.418 205.676 199.645C206.77 200.863 207.316 202.488 207.316 204.52C207.316 206.574 206.766 208.211 205.664 209.43C204.562 210.641 203.02 211.246 201.035 211.246ZM216.469 211V193.832H219.645V208.469H226.828L226.734 211H216.469ZM234.691 211.246C232.621 211.246 231.008 210.652 229.852 209.465C228.703 208.27 228.129 206.621 228.129 204.52C228.129 202.473 228.672 200.844 229.758 199.633C230.844 198.422 232.324 197.812 234.199 197.805C235.973 197.805 237.348 198.359 238.324 199.469C239.309 200.578 239.801 202.051 239.801 203.887C239.801 204.02 239.797 204.234 239.789 204.531C239.789 204.828 239.789 205.047 239.789 205.188H231.223C231.254 206.391 231.582 207.324 232.207 207.988C232.84 208.645 233.707 208.973 234.809 208.973C236.215 208.973 237.566 208.605 238.863 207.871L239.297 210.051C238.008 210.848 236.473 211.246 234.691 211.246ZM231.281 203.254H236.906C236.906 202.207 236.668 201.402 236.191 200.84C235.715 200.277 235.055 199.996 234.211 199.996C233.422 199.996 232.754 200.27 232.207 200.816C231.668 201.363 231.359 202.176 231.281 203.254ZM242.32 211V198.121H244.898L245.297 200.09C246.141 198.738 247.363 198.062 248.965 198.062C249.301 198.062 249.574 198.078 249.785 198.109L249.738 200.676C249.426 200.629 249.102 200.605 248.766 200.605C247.633 200.605 246.785 200.906 246.223 201.508C245.668 202.109 245.391 202.945 245.391 204.016V211H242.32ZM263.625 208.914C264.664 208.914 265.445 208.535 265.969 207.777C266.492 207.02 266.754 205.934 266.754 204.52C266.754 203.09 266.492 202 265.969 201.25C265.445 200.5 264.656 200.125 263.602 200.125C262.562 200.125 261.777 200.504 261.246 201.262C260.723 202.012 260.461 203.102 260.461 204.531C260.461 205.938 260.727 207.02 261.258 207.777C261.789 208.535 262.578 208.914 263.625 208.914ZM263.543 211.246C261.637 211.246 260.137 210.629 259.043 209.395C257.949 208.16 257.402 206.535 257.402 204.52C257.402 202.441 257.949 200.805 259.043 199.609C260.137 198.406 261.68 197.805 263.672 197.805C265.594 197.805 267.098 198.418 268.184 199.645C269.277 200.863 269.824 202.488 269.824 204.52C269.824 206.574 269.273 208.211 268.172 209.43C267.07 210.641 265.527 211.246 263.543 211.246ZM278.977 211V193.832H282.727L287.918 206.23L293.145 193.832H296.848V211H293.918V202.516L294.012 197.652L293.578 198.941L289.184 209.828H286.465L282.164 198.883L281.73 197.594L281.836 202.562V211H278.977ZM309.562 209.992C308.539 210.828 307.191 211.246 305.52 211.246C303.848 211.246 302.5 210.828 301.477 209.992C300.461 209.156 299.953 207.93 299.953 206.312V198.121H303.035V206.195C303.035 207.156 303.234 207.852 303.633 208.281C304.039 208.711 304.68 208.926 305.555 208.926C306.414 208.926 307.039 208.715 307.43 208.293C307.828 207.863 308.027 207.164 308.027 206.195V198.121H311.098V206.312C311.098 207.922 310.586 209.148 309.562 209.992ZM313.91 211V198.121H316.383L316.723 199.75C318.035 198.453 319.492 197.805 321.094 197.805C322.594 197.805 323.715 198.238 324.457 199.105C325.207 199.965 325.582 201.215 325.582 202.855V211H322.5V203.23C322.492 202.191 322.324 201.414 321.996 200.898C321.668 200.383 321.078 200.125 320.227 200.125C319.562 200.125 318.953 200.297 318.398 200.641C317.852 200.977 317.453 201.402 317.203 201.918C317.055 202.527 316.98 203.465 316.98 204.73V211H313.91ZM333.398 211.246C331.719 211.246 330.398 210.629 329.438 209.395C328.477 208.16 327.996 206.512 327.996 204.449C327.996 202.449 328.473 200.844 329.426 199.633C330.387 198.414 331.707 197.805 333.387 197.805C335.215 197.805 336.508 198.453 337.266 199.75C337.188 198.984 337.148 198.246 337.148 197.535V193.375L340.219 193.176V211H337.559L337.219 209.242C337.086 209.453 336.961 209.637 336.844 209.793C336.734 209.941 336.57 210.117 336.352 210.32C336.133 210.516 335.895 210.676 335.637 210.801C335.387 210.918 335.066 211.02 334.676 211.105C334.293 211.199 333.867 211.246 333.398 211.246ZM334.125 208.914C336.188 208.914 337.234 207.512 337.266 204.707C337.266 203.121 337 201.965 336.469 201.238C335.938 200.512 335.145 200.148 334.09 200.148C333.168 200.148 332.43 200.52 331.875 201.262C331.328 201.996 331.055 203.082 331.055 204.52C331.055 205.949 331.328 207.039 331.875 207.789C332.43 208.539 333.18 208.914 334.125 208.914ZM348.961 208.914C350 208.914 350.781 208.535 351.305 207.777C351.828 207.02 352.09 205.934 352.09 204.52C352.09 203.09 351.828 202 351.305 201.25C350.781 200.5 349.992 200.125 348.938 200.125C347.898 200.125 347.113 200.504 346.582 201.262C346.059 202.012 345.797 203.102 345.797 204.531C345.797 205.938 346.062 207.02 346.594 207.777C347.125 208.535 347.914 208.914 348.961 208.914ZM348.879 211.246C346.973 211.246 345.473 210.629 344.379 209.395C343.285 208.16 342.738 206.535 342.738 204.52C342.738 202.441 343.285 200.805 344.379 199.609C345.473 198.406 347.016 197.805 349.008 197.805C350.93 197.805 352.434 198.418 353.52 199.645C354.613 200.863 355.16 202.488 355.16 204.52C355.16 206.574 354.609 208.211 353.508 209.43C352.406 210.641 350.863 211.246 348.879 211.246ZM94.957 235.246C93.7617 235.246 92.793 234.918 92.0508 234.262C91.3164 233.598 90.9492 232.645 90.9492 231.402C90.9492 230.066 91.3867 229.078 92.2617 228.438C93.1367 227.789 94.457 227.379 96.2227 227.207C96.4648 227.176 96.7266 227.145 97.0078 227.113C97.2891 227.082 97.6055 227.051 97.957 227.02C98.3086 226.988 98.5859 226.961 98.7891 226.938V226.258C98.7891 225.477 98.6094 224.91 98.25 224.559C97.8906 224.199 97.3438 224.02 96.6094 224.02C95.5625 224.02 94.2695 224.312 92.7305 224.898C92.7227 224.875 92.5938 224.52 92.3438 223.832C92.0938 223.145 91.9648 222.793 91.957 222.777C93.4727 222.129 95.1133 221.805 96.8789 221.805C98.6133 221.805 99.875 222.184 100.664 222.941C101.453 223.691 101.848 224.91 101.848 226.598V235H99.5742C99.5664 234.969 99.4805 234.707 99.3164 234.215C99.1523 233.723 99.0703 233.461 99.0703 233.43C98.4297 234.055 97.8008 234.516 97.1836 234.812C96.5742 235.102 95.832 235.246 94.957 235.246ZM95.7891 233.066C96.5 233.066 97.1172 232.898 97.6406 232.562C98.1719 232.219 98.5508 231.805 98.7773 231.32V228.836C98.7539 228.836 98.5469 228.852 98.1562 228.883C97.7734 228.914 97.5664 228.93 97.5352 228.93C96.293 229.039 95.3828 229.273 94.8047 229.633C94.2266 229.992 93.9375 230.57 93.9375 231.367C93.9375 231.914 94.0977 232.336 94.418 232.633C94.7383 232.922 95.1953 233.066 95.7891 233.066ZM104.941 240.355V222.121H107.578L107.906 223.926C108.328 223.246 108.887 222.723 109.582 222.355C110.285 221.98 111.066 221.793 111.926 221.793C112.98 221.793 113.906 222.086 114.703 222.672C115.508 223.258 116.117 224.059 116.531 225.074C116.945 226.082 117.152 227.223 117.152 228.496C117.152 230.488 116.668 232.113 115.699 233.371C114.738 234.621 113.434 235.246 111.785 235.246C110.973 235.246 110.234 235.086 109.57 234.766C108.914 234.438 108.363 233.996 107.918 233.441C107.98 234.566 108.012 235.199 108.012 235.34V240.203L104.941 240.355ZM111.129 232.902C112.043 232.902 112.762 232.52 113.285 231.754C113.816 230.988 114.082 229.895 114.082 228.473C114.082 227.027 113.816 225.941 113.285 225.215C112.754 224.488 112.016 224.125 111.07 224.125C109.039 224.125 108.012 225.508 107.988 228.273C107.988 229.867 108.25 231.039 108.773 231.789C109.305 232.531 110.09 232.902 111.129 232.902ZM119.672 235V222.121H122.25L122.648 224.09C123.492 222.738 124.715 222.062 126.316 222.062C126.652 222.062 126.926 222.078 127.137 222.109L127.09 224.676C126.777 224.629 126.453 224.605 126.117 224.605C124.984 224.605 124.137 224.906 123.574 225.508C123.02 226.109 122.742 226.945 122.742 228.016V235H119.672ZM134.508 232.914C135.547 232.914 136.328 232.535 136.852 231.777C137.375 231.02 137.637 229.934 137.637 228.52C137.637 227.09 137.375 226 136.852 225.25C136.328 224.5 135.539 224.125 134.484 224.125C133.445 224.125 132.66 224.504 132.129 225.262C131.605 226.012 131.344 227.102 131.344 228.531C131.344 229.938 131.609 231.02 132.141 231.777C132.672 232.535 133.461 232.914 134.508 232.914ZM134.426 235.246C132.52 235.246 131.02 234.629 129.926 233.395C128.832 232.16 128.285 230.535 128.285 228.52C128.285 226.441 128.832 224.805 129.926 223.609C131.02 222.406 132.562 221.805 134.555 221.805C136.477 221.805 137.98 222.418 139.066 223.645C140.16 224.863 140.707 226.488 140.707 228.52C140.707 230.574 140.156 232.211 139.055 233.43C137.953 234.641 136.41 235.246 134.426 235.246ZM146.637 235L141.504 222.121H144.762C144.887 222.473 145.281 223.566 145.945 225.402C146.617 227.23 147.062 228.477 147.281 229.141C147.727 230.438 148.047 231.418 148.242 232.082C148.242 232.074 148.309 231.82 148.441 231.32C148.574 230.82 148.699 230.352 148.816 229.914C148.941 229.469 149.02 229.199 149.051 229.105C149.059 229.09 149.414 228.012 150.117 225.871C150.828 223.73 151.25 222.48 151.383 222.121H154.617L149.742 235H146.637ZM162.082 235.246C160.012 235.246 158.398 234.652 157.242 233.465C156.094 232.27 155.52 230.621 155.52 228.52C155.52 226.473 156.062 224.844 157.148 223.633C158.234 222.422 159.715 221.812 161.59 221.805C163.363 221.805 164.738 222.359 165.715 223.469C166.699 224.578 167.191 226.051 167.191 227.887C167.191 228.02 167.188 228.234 167.18 228.531C167.18 228.828 167.18 229.047 167.18 229.188H158.613C158.645 230.391 158.973 231.324 159.598 231.988C160.23 232.645 161.098 232.973 162.199 232.973C163.605 232.973 164.957 232.605 166.254 231.871L166.688 234.051C165.398 234.848 163.863 235.246 162.082 235.246ZM158.672 227.254H164.297C164.297 226.207 164.059 225.402 163.582 224.84C163.105 224.277 162.445 223.996 161.602 223.996C160.812 223.996 160.145 224.27 159.598 224.816C159.059 225.363 158.75 226.176 158.672 227.254ZM169.77 235V222.121H172.84V235H169.77ZM169.77 220.246V217.621H172.852V220.246H169.77ZM181.195 235.176C180.32 235.176 179.59 235.074 179.004 234.871C178.426 234.66 177.973 234.332 177.645 233.887C177.316 233.441 177.082 232.918 176.941 232.316C176.809 231.707 176.742 230.957 176.742 230.066V223.984H174.633L174.75 222.32L176.953 222.121L177.938 218.629L179.812 218.617V222.121H183.012V223.984H179.812V230.125C179.812 231.102 179.953 231.797 180.234 232.211C180.516 232.625 181.035 232.832 181.793 232.832C182.238 232.832 182.715 232.793 183.223 232.715L183.305 234.918C183.289 234.918 183.191 234.938 183.012 234.977C182.84 235.008 182.672 235.035 182.508 235.059C182.352 235.09 182.148 235.117 181.898 235.141C181.648 235.164 181.414 235.176 181.195 235.176ZM191.309 235.246C189.238 235.246 187.625 234.652 186.469 233.465C185.32 232.27 184.746 230.621 184.746 228.52C184.746 226.473 185.289 224.844 186.375 223.633C187.461 222.422 188.941 221.812 190.816 221.805C192.59 221.805 193.965 222.359 194.941 223.469C195.926 224.578 196.418 226.051 196.418 227.887C196.418 228.02 196.414 228.234 196.406 228.531C196.406 228.828 196.406 229.047 196.406 229.188H187.84C187.871 230.391 188.199 231.324 188.824 231.988C189.457 232.645 190.324 232.973 191.426 232.973C192.832 232.973 194.184 232.605 195.48 231.871L195.914 234.051C194.625 234.848 193.09 235.246 191.309 235.246ZM187.898 227.254H193.523C193.523 226.207 193.285 225.402 192.809 224.84C192.332 224.277 191.672 223.996 190.828 223.996C190.039 223.996 189.371 224.27 188.824 224.816C188.285 225.363 187.977 226.176 187.898 227.254ZM210.891 232.914C211.93 232.914 212.711 232.535 213.234 231.777C213.758 231.02 214.02 229.934 214.02 228.52C214.02 227.09 213.758 226 213.234 225.25C212.711 224.5 211.922 224.125 210.867 224.125C209.828 224.125 209.043 224.504 208.512 225.262C207.988 226.012 207.727 227.102 207.727 228.531C207.727 229.938 207.992 231.02 208.523 231.777C209.055 232.535 209.844 232.914 210.891 232.914ZM210.809 235.246C208.902 235.246 207.402 234.629 206.309 233.395C205.215 232.16 204.668 230.535 204.668 228.52C204.668 226.441 205.215 224.805 206.309 223.609C207.402 222.406 208.945 221.805 210.938 221.805C212.859 221.805 214.363 222.418 215.449 223.645C216.543 224.863 217.09 226.488 217.09 228.52C217.09 230.574 216.539 232.211 215.438 233.43C214.336 234.641 212.793 235.246 210.809 235.246ZM230.742 235.246C229.062 235.246 227.742 234.629 226.781 233.395C225.82 232.16 225.34 230.512 225.34 228.449C225.34 226.449 225.816 224.844 226.77 223.633C227.73 222.414 229.051 221.805 230.73 221.805C232.559 221.805 233.852 222.453 234.609 223.75C234.531 222.984 234.492 222.246 234.492 221.535V217.375L237.562 217.176V235H234.902L234.562 233.242C234.43 233.453 234.305 233.637 234.188 233.793C234.078 233.941 233.914 234.117 233.695 234.32C233.477 234.516 233.238 234.676 232.98 234.801C232.73 234.918 232.41 235.02 232.02 235.105C231.637 235.199 231.211 235.246 230.742 235.246ZM231.469 232.914C233.531 232.914 234.578 231.512 234.609 228.707C234.609 227.121 234.344 225.965 233.812 225.238C233.281 224.512 232.488 224.148 231.434 224.148C230.512 224.148 229.773 224.52 229.219 225.262C228.672 225.996 228.398 227.082 228.398 228.52C228.398 229.949 228.672 231.039 229.219 231.789C229.773 232.539 230.523 232.914 231.469 232.914ZM246.645 235.246C244.574 235.246 242.961 234.652 241.805 233.465C240.656 232.27 240.082 230.621 240.082 228.52C240.082 226.473 240.625 224.844 241.711 223.633C242.797 222.422 244.277 221.812 246.152 221.805C247.926 221.805 249.301 222.359 250.277 223.469C251.262 224.578 251.754 226.051 251.754 227.887C251.754 228.02 251.75 228.234 251.742 228.531C251.742 228.828 251.742 229.047 251.742 229.188H243.176C243.207 230.391 243.535 231.324 244.16 231.988C244.793 232.645 245.66 232.973 246.762 232.973C248.168 232.973 249.52 232.605 250.816 231.871L251.25 234.051C249.961 234.848 248.426 235.246 246.645 235.246ZM243.234 227.254H248.859C248.859 226.207 248.621 225.402 248.145 224.84C247.668 224.277 247.008 223.996 246.164 223.996C245.375 223.996 244.707 224.27 244.16 224.816C243.621 225.363 243.312 226.176 243.234 227.254ZM258.375 235.234C256.477 235.234 254.957 234.91 253.816 234.262L254.133 231.953C254.648 232.234 255.305 232.488 256.102 232.715C256.898 232.934 257.625 233.043 258.281 233.043C258.961 233.043 259.488 232.918 259.863 232.668C260.246 232.41 260.441 232.035 260.449 231.543C260.449 231.098 260.27 230.746 259.91 230.488C259.559 230.23 258.883 229.91 257.883 229.527C257.539 229.402 257.316 229.32 257.215 229.281C256.027 228.82 255.172 228.309 254.648 227.746C254.125 227.176 253.863 226.406 253.863 225.438C253.863 224.266 254.285 223.367 255.129 222.742C255.98 222.117 257.164 221.805 258.68 221.805C260.32 221.805 261.762 222.113 263.004 222.73L262.242 224.852C261.016 224.281 259.848 223.996 258.738 223.996C258.121 223.996 257.637 224.102 257.285 224.312C256.941 224.516 256.77 224.828 256.77 225.25C256.77 225.648 256.938 225.961 257.273 226.188C257.609 226.406 258.266 226.695 259.242 227.055C259.273 227.062 259.375 227.098 259.547 227.16C259.719 227.223 259.852 227.273 259.945 227.312C261.125 227.742 261.992 228.258 262.547 228.859C263.102 229.453 263.379 230.23 263.379 231.191C263.371 232.48 262.934 233.477 262.066 234.18C261.199 234.883 259.969 235.234 258.375 235.234ZM271.453 235.246C269.484 235.246 267.949 234.66 266.848 233.488C265.754 232.316 265.207 230.641 265.207 228.461C265.207 226.352 265.781 224.715 266.93 223.551C268.086 222.387 269.605 221.805 271.488 221.805C272.996 221.805 274.27 222.129 275.309 222.777L274.582 224.969C273.52 224.414 272.531 224.137 271.617 224.137C270.578 224.137 269.758 224.508 269.156 225.25C268.562 225.992 268.266 227.074 268.266 228.496C268.266 229.934 268.559 231.027 269.145 231.777C269.738 232.527 270.574 232.902 271.652 232.902C272.777 232.902 273.859 232.57 274.898 231.906L275.191 234.238C274.652 234.598 274.094 234.855 273.516 235.012C272.938 235.168 272.25 235.246 271.453 235.246ZM283.148 232.914C284.188 232.914 284.969 232.535 285.492 231.777C286.016 231.02 286.277 229.934 286.277 228.52C286.277 227.09 286.016 226 285.492 225.25C284.969 224.5 284.18 224.125 283.125 224.125C282.086 224.125 281.301 224.504 280.77 225.262C280.246 226.012 279.984 227.102 279.984 228.531C279.984 229.938 280.25 231.02 280.781 231.777C281.312 232.535 282.102 232.914 283.148 232.914ZM283.066 235.246C281.16 235.246 279.66 234.629 278.566 233.395C277.473 232.16 276.926 230.535 276.926 228.52C276.926 226.441 277.473 224.805 278.566 223.609C279.66 222.406 281.203 221.805 283.195 221.805C285.117 221.805 286.621 222.418 287.707 223.645C288.801 224.863 289.348 226.488 289.348 228.52C289.348 230.574 288.797 232.211 287.695 233.43C286.594 234.641 285.051 235.246 283.066 235.246ZM291.855 235V222.121H294.328L294.668 223.75C295.98 222.453 297.438 221.805 299.039 221.805C300.539 221.805 301.66 222.238 302.402 223.105C303.152 223.965 303.527 225.215 303.527 226.855V235H300.445V227.23C300.438 226.191 300.27 225.414 299.941 224.898C299.613 224.383 299.023 224.125 298.172 224.125C297.508 224.125 296.898 224.297 296.344 224.641C295.797 224.977 295.398 225.402 295.148 225.918C295 226.527 294.926 227.465 294.926 228.73V235H291.855ZM311.695 235.176C310.82 235.176 310.09 235.074 309.504 234.871C308.926 234.66 308.473 234.332 308.145 233.887C307.816 233.441 307.582 232.918 307.441 232.316C307.309 231.707 307.242 230.957 307.242 230.066V223.984H305.133L305.25 222.32L307.453 222.121L308.438 218.629L310.312 218.617V222.121H313.512V223.984H310.312V230.125C310.312 231.102 310.453 231.797 310.734 232.211C311.016 232.625 311.535 232.832 312.293 232.832C312.738 232.832 313.215 232.793 313.723 232.715L313.805 234.918C313.789 234.918 313.691 234.938 313.512 234.977C313.34 235.008 313.172 235.035 313.008 235.059C312.852 235.09 312.648 235.117 312.398 235.141C312.148 235.164 311.914 235.176 311.695 235.176ZM321.469 232.914C322.508 232.914 323.289 232.535 323.812 231.777C324.336 231.02 324.598 229.934 324.598 228.52C324.598 227.09 324.336 226 323.812 225.25C323.289 224.5 322.5 224.125 321.445 224.125C320.406 224.125 319.621 224.504 319.09 225.262C318.566 226.012 318.305 227.102 318.305 228.531C318.305 229.938 318.57 231.02 319.102 231.777C319.633 232.535 320.422 232.914 321.469 232.914ZM321.387 235.246C319.48 235.246 317.98 234.629 316.887 233.395C315.793 232.16 315.246 230.535 315.246 228.52C315.246 226.441 315.793 224.805 316.887 223.609C317.98 222.406 319.523 221.805 321.516 221.805C323.438 221.805 324.941 222.418 326.027 223.645C327.121 224.863 327.668 226.488 327.668 228.52C327.668 230.574 327.117 232.211 326.016 233.43C324.914 234.641 323.371 235.246 321.387 235.246ZM341.32 235.246C339.641 235.246 338.32 234.629 337.359 233.395C336.398 232.16 335.918 230.512 335.918 228.449C335.918 226.449 336.395 224.844 337.348 223.633C338.309 222.414 339.629 221.805 341.309 221.805C343.137 221.805 344.43 222.453 345.188 223.75C345.109 222.984 345.07 222.246 345.07 221.535V217.375L348.141 217.176V235H345.48L345.141 233.242C345.008 233.453 344.883 233.637 344.766 233.793C344.656 233.941 344.492 234.117 344.273 234.32C344.055 234.516 343.816 234.676 343.559 234.801C343.309 234.918 342.988 235.02 342.598 235.105C342.215 235.199 341.789 235.246 341.32 235.246ZM342.047 232.914C344.109 232.914 345.156 231.512 345.188 228.707C345.188 227.121 344.922 225.965 344.391 225.238C343.859 224.512 343.066 224.148 342.012 224.148C341.09 224.148 340.352 224.52 339.797 225.262C339.25 225.996 338.977 227.082 338.977 228.52C338.977 229.949 339.25 231.039 339.797 231.789C340.352 232.539 341.102 232.914 342.047 232.914ZM357.223 235.246C355.152 235.246 353.539 234.652 352.383 233.465C351.234 232.27 350.66 230.621 350.66 228.52C350.66 226.473 351.203 224.844 352.289 223.633C353.375 222.422 354.855 221.812 356.73 221.805C358.504 221.805 359.879 222.359 360.855 223.469C361.84 224.578 362.332 226.051 362.332 227.887C362.332 228.02 362.328 228.234 362.32 228.531C362.32 228.828 362.32 229.047 362.32 229.188H353.754C353.785 230.391 354.113 231.324 354.738 231.988C355.371 232.645 356.238 232.973 357.34 232.973C358.746 232.973 360.098 232.605 361.395 231.871L361.828 234.051C360.539 234.848 359.004 235.246 357.223 235.246ZM353.812 227.254H359.438C359.438 226.207 359.199 225.402 358.723 224.84C358.246 224.277 357.586 223.996 356.742 223.996C355.953 223.996 355.285 224.27 354.738 224.816C354.199 225.363 353.891 226.176 353.812 227.254Z" fill="#379FDD"/>
<path d="M51.8162 105.651C51.8611 106.774 51.0529 107.716 49.9753 107.806L2.20188 110.141C1.12428 110.186 0.226282 109.333 0.136483 108.21L0.00178315 105.112C-0.0431167 103.99 0.765081 103.047 1.84268 102.957L49.6161 100.622C50.6937 100.577 51.5917 101.43 51.6815 102.553L51.8162 105.651Z" fill="#59B98A"/>
<path d="M91.373 0.0016937C92.4506 -0.0432062 93.3486 0.809891 93.4384 1.93239L95.863 51.9508C95.9079 53.0733 95.0997 54.0162 94.0221 54.106L91.1036 54.2407C90.026 54.2856 89.128 53.4325 89.0382 52.31L86.6136 2.29159C86.5687 1.16909 87.3769 0.226193 88.4545 0.136393L91.373 0.0016937Z" fill="#59B98A"/>
<path d="M19.3986 27.8396C20.2517 26.8518 21.6436 26.7171 22.4967 27.5253L59.7636 63.4901C60.6167 64.2983 60.5718 65.7351 59.7187 66.7229L57.3839 69.3719C56.5308 70.3597 55.1389 70.4944 54.2858 69.6862L17.0189 33.7215C16.1658 32.9133 16.2107 31.4765 17.0638 30.4887L19.3986 27.8396Z" fill="#59B98A"/>
<path d="M60 223C60 223 65.1196 272.387 126.421 274H307" stroke="#379FDD" stroke-width="6" stroke-miterlimit="10"/>
<path d="M407 77C407 77 393.779 28.5288 334.013 27L158 27.2248" stroke="#379FDD" stroke-width="6" stroke-miterlimit="10"/>
<path d="M534 286.371C534 298.848 523.896 309 511.378 309H409.622C397.149 309 387 298.893 387 286.371V184.629C387 172.152 397.104 162 409.622 162H511.333C523.807 162 533.955 172.107 533.955 184.629V286.371H534Z" fill="#2D2D2D"/>
<path d="M542 293.85C542 306.111 532.066 316 519.85 316H420.15C407.889 316 398 306.066 398 293.85V194.15C398 181.889 407.934 172 420.15 172H519.805C532.066 172 541.955 181.934 541.955 194.15V293.85H542Z" stroke="#EFCB37" stroke-width="10" stroke-miterlimit="10"/>
<path d="M567.469 298.369C567.424 297.427 568.098 296.663 568.996 296.618L608.328 295.002C609.226 294.957 609.944 295.675 609.989 296.618L610.079 299.133C610.124 300.076 609.45 300.839 608.552 300.884L569.22 302.5C568.322 302.545 567.604 301.827 567.559 300.884L567.469 298.369Z" fill="#59B98A"/>
<path d="M531.37 382.826C530.472 382.871 529.753 382.153 529.708 381.21L528.002 339.992C527.957 339.049 528.631 338.285 529.529 338.241L531.953 338.151C532.851 338.106 533.57 338.824 533.615 339.767L535.321 380.985C535.366 381.928 534.692 382.691 533.794 382.736L531.37 382.826Z" fill="#59B98A"/>
<path d="M588.168 362.307C587.449 363.115 586.327 363.205 585.653 362.531L555.211 332.673C554.538 331.999 554.538 330.787 555.256 330.024L557.187 327.869C557.905 327.06 559.028 326.971 559.701 327.644L590.143 357.503C590.817 358.176 590.817 359.388 590.098 360.152L588.168 362.307Z" fill="#59B98A"/>
<path d="M441.816 249.008C454.056 249.008 462.624 242.312 462.624 231.08V230.936C462.624 219.992 454.416 214.952 445.344 214.952C441.96 214.952 439.584 215.672 437.28 216.752L437.712 209.12H460.392V197.6H426.696L425.256 223.16L433.536 227.768C435.912 226.328 438.504 225.248 441.6 225.248C445.992 225.248 449.016 227.48 449.016 231.08V231.224C449.016 234.824 446.208 237.128 441.6 237.128C437.352 237.128 433.464 235.112 429.36 231.656L421.368 241.016C426.624 245.912 432.888 249.008 441.816 249.008ZM491.56 249.008C505.96 249.008 514.96 237.056 514.96 222.8V222.656C514.96 208.4 506.032 196.592 491.704 196.592C477.376 196.592 468.304 208.544 468.304 222.8V222.944C468.304 237.2 477.16 249.008 491.56 249.008ZM491.704 236.624C486.088 236.624 482.344 230.864 482.344 222.8V222.656C482.344 214.592 486.016 208.976 491.56 208.976C497.104 208.976 500.92 214.808 500.92 222.8V222.944C500.92 230.936 497.32 236.624 491.704 236.624Z" fill="#EFCB37"/>
<path d="M421.989 264.862C421.989 263.692 422.158 262.691 422.496 261.859C422.834 261.027 423.302 260.338 423.9 259.792C424.498 259.246 425.213 258.856 426.045 258.622C426.903 258.362 427.826 258.232 428.814 258.232C429.802 258.232 430.712 258.349 431.544 258.583C432.376 258.817 433.091 259.194 433.689 259.714C434.313 260.234 434.794 260.923 435.132 261.781C435.47 262.613 435.652 263.64 435.678 264.862C435.652 266.084 435.47 267.124 435.132 267.982C434.794 268.814 434.313 269.49 433.689 270.01C433.091 270.53 432.376 270.907 431.544 271.141C430.712 271.375 429.802 271.492 428.814 271.492C427.826 271.492 426.903 271.375 426.045 271.141C425.213 270.907 424.498 270.53 423.9 270.01C423.302 269.49 422.834 268.814 422.496 267.982C422.158 267.124 421.989 266.084 421.989 264.862ZM426.513 264.862C426.513 267.098 427.28 268.216 428.814 268.216C429.62 268.216 430.192 267.982 430.53 267.514C430.894 267.02 431.089 266.136 431.115 264.862C431.089 263.614 430.894 262.743 430.53 262.249C430.192 261.755 429.62 261.508 428.814 261.508C428.008 261.508 427.423 261.755 427.059 262.249C426.695 262.743 426.513 263.614 426.513 264.862ZM437.823 279.292C437.823 278.122 437.992 277.121 438.33 276.289C438.668 275.457 439.136 274.768 439.734 274.222C440.332 273.676 441.047 273.286 441.879 273.052C442.737 272.792 443.66 272.662 444.648 272.662C445.636 272.662 446.546 272.779 447.378 273.013C448.21 273.247 448.925 273.624 449.523 274.144C450.147 274.664 450.628 275.353 450.966 276.211C451.304 277.043 451.486 278.07 451.512 279.292C451.486 280.514 451.304 281.554 450.966 282.412C450.628 283.244 450.147 283.92 449.523 284.44C448.925 284.96 448.21 285.337 447.378 285.571C446.546 285.805 445.636 285.922 444.648 285.922C443.66 285.922 442.737 285.805 441.879 285.571C441.047 285.337 440.332 284.96 439.734 284.44C439.136 283.92 438.668 283.244 438.33 282.412C437.992 281.554 437.823 280.514 437.823 279.292ZM442.347 279.292C442.347 281.528 443.114 282.646 444.648 282.646C445.454 282.646 446.026 282.412 446.364 281.944C446.728 281.45 446.923 280.566 446.949 279.292C446.923 278.044 446.728 277.173 446.364 276.679C446.026 276.185 445.454 275.938 444.648 275.938C443.842 275.938 443.257 276.185 442.893 276.679C442.529 277.173 442.347 278.044 442.347 279.292ZM446.403 258.154L449.25 260.728L426.786 286.546L423.939 283.855L446.403 258.154ZM454.236 272.35C454.236 267.8 455.237 264.303 457.239 261.859C459.241 259.389 462.101 258.154 465.819 258.154C467.769 258.154 469.472 258.492 470.928 259.168C472.384 259.844 473.593 260.806 474.555 262.054C475.517 263.302 476.232 264.797 476.7 266.539C477.168 268.281 477.402 270.218 477.402 272.35C477.402 276.9 476.388 280.41 474.36 282.88C472.358 285.324 469.511 286.546 465.819 286.546C463.843 286.546 462.127 286.208 460.671 285.532C459.215 284.856 458.006 283.894 457.044 282.646C456.108 281.398 455.406 279.903 454.938 278.161C454.47 276.419 454.236 274.482 454.236 272.35ZM459.852 272.35C459.852 273.728 459.969 275.002 460.203 276.172C460.437 277.316 460.788 278.304 461.256 279.136C461.75 279.968 462.374 280.618 463.128 281.086C463.882 281.554 464.779 281.788 465.819 281.788C467.717 281.788 469.186 281.047 470.226 279.565C471.266 278.083 471.786 275.678 471.786 272.35C471.786 271.024 471.669 269.789 471.435 268.645C471.227 267.501 470.889 266.5 470.421 265.642C469.953 264.784 469.342 264.121 468.588 263.653C467.834 263.159 466.911 262.912 465.819 262.912C463.921 262.912 462.452 263.679 461.412 265.213C460.372 266.721 459.852 269.1 459.852 272.35ZM481.221 258.7H497.406V263.458H486.564V270.205H496.548V274.963H486.564V286H481.221V258.7ZM501.026 258.7H517.211V263.458H506.369V270.205H516.353V274.963H506.369V286H501.026V258.7Z" fill="#EFCB37"/>
</svg>
